# xmcd CD database file
#
# Track frame offsets:
#	150
#	65059
#	100237
#	138181
#	218349
#	285198
#
# Disc length: 3848 seconds
#
# Revision: 0
# Processed by: cddbd v1.5.2PL0 Copyright (c) Steve Scherf et al.
# Submitted via: CDex 1.70beta3
#
DISCID=4d0f0606
DTITLE=真剣で私に恋しなさい！！ Drama CD vol2 - 真剣で私に恋しなさい！！ Drama CD vol2
DYEAR=2010
DGENRE=ドラマCD
TTITLE0=俺の考えた凄い　すごい　マスコット
TTITLE1=せめて自分らしく
TTITLE2=ニヒルなものにかぶれるお年頃
TTITLE3=秀雄様の優雅なるスイーツタイム
TTITLE4=クリス歯医者へ行く
TTITLE5=次回予告
EXTD=YEAR: 2010
EXTT0=
EXTT1=
EXTT2=
EXTT3=
EXTT4=
EXTT5=
PLAYORDER=
